PathFileType	4	(X/Y/Z)	s09c0402.trc
DataRate	CameraRate	NumFrames	NumMarkers	Units	OrigDataRate	OrigDataStartFrame	OrigNumFrames
200	200	5	50	mm	200	500	2000
Frame#	Time	racr			lacr			c7			jug			rlel			rdr			llel			ldr			s2			lic			ric			lasi			rasi			rpsi			lpsi			rgt			lgt			rth1			rth2			rth3			rth4			rlfc			rmfc			rsh1			rsh2			rsh3			rsh4			rlmal			rmmal			rcal			rtoe			rmt5			lth1			lth2			lth4			lth3			llfc			lmfc			llmal			lmmal			lcal			lmt5			lsh1			lsh2			lsh3			lsh4			ltoe			SBIKE			LBIKE			RBIKE			
		X1	Y1	Z1	X2	Y2	Z2	X3	Y3	Z3	X4	Y4	Z4	X5	Y5	Z5	X6	Y6	Z6	X7	Y7	Z7	X8	Y8	Z8	X9	Y9	Z9	X10	Y10	Z10	X11	Y11	Z11	X12	Y12	Z12	X13	Y13	Z13	X14	Y14	Z14	X15	Y15	Z15	X16	Y16	Z16	X17	Y17	Z17	X18	Y18	Z18	X19	Y19	Z19	X20	Y20	Z20	X21	Y21	Z21	X22	Y22	Z22	X23	Y23	Z23	X24	Y24	Z24	X25	Y25	Z25	X26	Y26	Z26	X27	Y27	Z27	X28	Y28	Z28	X29	Y29	Z29	X30	Y30	Z30	X31	Y31	Z31	X32	Y32	Z32	X33	Y33	Z33	X34	Y34	Z34	X35	Y35	Z35	X36	Y36	Z36	X37	Y37	Z37	X38	Y38	Z38	X39	Y39	Z39	X40	Y40	Z40	X41	Y41	Z41	X42	Y42	Z42	X43	Y43	Z43	X44	Y44	Z44	X45	Y45	Z45	X46	Y46	Z46	X47	Y47	Z47	X48	Y48	Z48	X49	Y49	Z49	X50	Y50	Z50	
500	2.5000	603.061360	1270.572681	-95.789490	606.807818	1252.087344	-413.656350	581.996332	1290.923083	-252.361199	561.001128	1155.021896	-250.292841	505.087865	1056.874337	33.421652	682.695425	909.091280	-36.324241	475.063934	1041.318639	-557.527012	663.960665	911.907557	-464.246643	84.126529	1160.448573	-218.003348	215.182806	1130.375339	-367.571953	233.661529	1104.557300	-85.274753	223.953612	1064.768769	-346.346606	251.363925	1040.418706	-108.168074	127.678879	1174.750533	-159.143123	120.801496	1190.936086	-266.587771	160.915801	972.569101	-39.754158	154.845587	1050.723385	-426.113098	217.943528	845.928003	-54.138112	271.995578	778.776870	-68.929888	278.983828	691.053342	-82.673678	298.480003	791.434401	-91.405541	297.938503	594.829968	-116.674674	268.741230	582.098837	-211.171467	223.853475	522.475767	-78.993289	191.193341	439.084323	-91.624865	124.680268	384.028053	-84.804507	210.272906	428.252460	-124.853128	63.392538	300.840534	-79.639432	66.081115	310.988999	-159.783193	-23.527145	274.618326	-117.579782	236.679465	232.836747	-127.162641	155.109454	226.489798	-60.456673	265.367164	976.182552	-416.190274	348.893717	961.209603	-408.691696	363.511368	989.877032	-387.788320	418.502822	902.864096	-410.689194	495.617888	830.256929	-393.497986	508.999827	814.133454	-293.739754	329.643714	501.587825	-410.439953	342.726407	511.502553	-334.342553	253.373711	461.643850	-373.723193	423.158022	423.633848	-434.852570	454.283936	740.727828	-418.233969	434.036598	655.821164	-410.012374	372.767770	591.565358	-411.626166	455.899919	646.698326	-378.717067	512.493199	444.437327	-364.462798	-64.759476	852.469972	-240.557653	21.378515	84.007295	-442.346696	21.090936	83.926191	-43.945451	
501	2.5050	604.114056	1272.439309	-95.302153	607.739694	1253.478420	-414.793835	583.415486	1293.436912	-252.277085	562.732284	1157.132582	-250.769949	506.183781	1058.139696	32.818818	682.690301	909.104821	-37.183126	475.647037	1042.272920	-557.561914	663.843328	911.969449	-464.278011	85.868256	1160.965082	-217.461703	216.666148	1131.602061	-367.223249	235.762812	1105.178507	-85.016412	225.943412	1065.675161	-346.072633	253.406782	1041.167058	-108.266645	129.561389	1175.281767	-158.691870	122.335132	1191.637343	-266.081909	163.289145	973.139189	-39.579240	156.548868	1051.388789	-425.719476	220.089362	846.220627	-54.060880	273.672562	778.737720	-68.944098	280.132630	691.024388	-82.588014	300.092290	791.185217	-91.590176	298.336271	594.689000	-116.333738	269.138114	581.965892	-210.717090	224.300909	522.270584	-78.622838	191.929689	438.709559	-91.300764	125.587914	383.570413	-84.589696	210.913491	428.243001	-124.145873	64.417081	300.141184	-79.463613	67.074739	310.402828	-159.563970	-22.384256	274.124062	-117.416219	237.648557	231.408771	-127.152880	155.950308	225.354898	-60.487720	267.312370	976.469670	-415.922522	350.905814	961.434342	-408.392080	365.568460	990.081757	-387.584261	420.420963	903.009965	-410.396062	497.378151	830.409553	-393.051776	510.657550	814.223954	-293.321034	329.397268	502.794390	-410.198347	342.479514	512.528435	-334.110774	252.888355	463.158719	-373.621179	422.516102	424.684064	-434.812177	455.593640	741.106216	-417.790033	434.785283	656.383073	-409.640546	372.991854	592.531268	-411.479283	456.482528	647.156945	-378.288950	511.913055	445.354106	-364.545108	-64.757876	852.463389	-240.520011	21.408500	84.110216	-442.272788	21.121025	83.871469	-43.931382	
502	2.5100	605.208487	1274.279732	-94.858562	608.704474	1254.743405	-415.992635	584.827226	1296.113530	-252.680863	564.557017	1159.453300	-251.143373	507.171493	1059.418572	32.263294	682.605822	909.121659	-37.976127	476.361899	1043.224840	-557.553030	663.775485	911.931803	-464.304473	87.565874	1161.459954	-217.002310	218.110854	1132.793701	-367.031565	237.883031	1105.899758	-84.787235	227.964709	1066.517373	-345.915206	255.435104	1042.039256	-108.329657	131.427970	1175.884155	-158.313109	123.807784	1192.367564	-265.624231	165.653851	973.723473	-39.516483	158.401619	1051.960310	-425.463521	222.269412	846.608368	-54.003342	275.535326	778.961703	-68.919512	281.394559	690.992887	-82.985899	301.873172	791.160058	-91.761702	298.968030	594.740900	-115.862615	269.801055	581.931926	-210.240304	224.907709	522.294049	-78.213487	192.727033	438.690596	-90.912683	126.511712	383.303497	-84.348367	211.915028	428.187133	-123.614836	65.509218	299.817601	-79.269262	68.451859	309.930412	-159.385167	-21.283985	274.020359	-117.253892	238.513956	230.055083	-127.147556	156.809965	224.253895	-60.506854	269.346145	976.576907	-415.660689	352.903881	961.448148	-408.155654	367.619512	990.114922	-387.440253	422.346769	902.906841	-410.021099	499.029805	830.297691	-392.550686	512.233496	814.131697	-292.911187	329.297627	503.864079	-409.942383	342.059001	513.601845	-333.987729	252.403512	464.383062	-373.485086	421.921422	425.721356	-434.828900	456.786260	741.252032	-417.328365	435.422281	656.782843	-409.218579	373.236303	593.304679	-411.198261	456.988169	647.357866	-377.799737	511.398065	445.997280	-364.454018	-64.754858	852.466778	-240.502969	21.378257	84.026514	-442.334097	21.105697	83.919871	-43.934838	
503	2.5150	606.171121	1276.162796	-94.394881	609.567227	1256.206483	-417.271838	585.859704	1299.487457	-252.009755	566.564295	1161.941996	-251.905784	508.083481	1060.623978	31.717275	682.497270	909.173102	-38.802680	476.996951	1044.072838	-557.566255	663.753922	911.726193	-464.459357	89.174493	1161.940644	-216.554613	219.492197	1133.941535	-366.830803	239.915548	1106.717505	-84.591413	229.972619	1067.409986	-345.896467	257.574105	1042.919324	-108.426814	133.205751	1176.433762	-158.025409	125.206010	1193.007319	-265.172294	167.967246	974.415040	-39.429867	160.186382	1052.240757	-425.041173	224.555870	847.091395	-53.940068	277.553454	779.175480	-68.836543	282.951113	691.166831	-82.792106	303.807789	791.304250	-91.779532	299.801327	594.989881	-115.392825	270.726560	582.043172	-209.726046	225.609405	522.485550	-77.833933	193.683656	438.877671	-90.418255	127.495196	383.247474	-84.064961	213.044236	428.285116	-123.028360	66.769760	299.430986	-79.032684	69.886058	309.596444	-159.195925	-20.086239	274.281466	-117.189314	239.426494	228.688708	-127.161620	157.604461	223.333690	-60.536076	271.379716	976.522789	-415.321194	354.401326	961.235451	-408.478488	369.699344	990.063071	-387.326482	424.277030	902.625409	-409.560503	500.661554	829.978940	-392.071480	513.688989	813.750449	-292.529283	329.182104	504.705680	-409.702828	341.719717	514.346259	-333.741793	251.863137	465.479217	-373.471892	421.375927	426.502829	-434.807344	457.925663	741.191767	-416.815315	436.016955	656.961907	-408.798536	373.465776	593.824717	-410.925300	457.435035	647.391555	-377.341435	510.917883	446.660876	-364.409591	-64.767155	852.485675	-240.482662	21.364316	84.025439	-442.346256	21.107849	83.914317	-43.947212	
504	2.5200	607.175027	1278.132263	-93.942875	610.518293	1257.581206	-418.603609	586.794554	1302.293855	-251.877478	568.328681	1164.511814	-252.237606	509.028534	1061.950804	31.215011	682.355538	909.215988	-39.537429	477.740222	1045.004135	-557.554251	663.747949	911.643952	-464.637861	90.823121	1162.389097	-216.178621	220.836349	1135.186741	-366.782759	241.984917	1107.638821	-84.497963	231.955392	1068.283614	-346.043278	259.741584	1044.115518	-108.543853	134.986800	1176.970737	-157.769038	126.567540	1193.596865	-264.806820	170.407902	975.090312	-39.474178	161.978879	1052.264256	-424.745201	226.930552	847.669233	-53.832168	279.628632	779.541554	-68.680433	284.667651	691.414154	-82.524334	305.845766	791.502046	-91.823108	301.116676	595.167035	-114.719650	271.878793	582.293478	-209.167249	226.477513	522.894304	-77.340286	195.109835	439.469600	-89.065791	128.485444	383.487169	-83.780381	214.303726	428.543182	-122.415064	67.995248	299.538453	-78.942316	71.266701	309.756830	-158.973448	-18.849798	274.888397	-117.124895	240.290628	227.126748	-127.158596	158.424043	222.403342	-60.579782	273.434878	976.325106	-415.053217	356.891254	961.071945	-407.652797	371.776405	989.851121	-387.246902	426.209272	902.232523	-409.068662	502.211691	829.573258	-391.469886	515.102922	813.251995	-292.124043	329.052246	505.399624	-409.470277	341.385914	514.944701	-333.483526	251.385994	466.282973	-373.414752	420.921372	427.295795	-434.726662	458.940117	741.015815	-416.348601	436.598588	656.925509	-408.284113	373.638631	594.147079	-410.643517	457.843418	647.239186	-376.796097	510.462141	447.314685	-364.360115	-64.776836	852.485761	-240.469260	21.374570	84.042103	-442.353417	21.114319	83.894220	-43.943788	
